<svg xmlns="http://www.w3.org/2000/svg" style="display: none;"><symbol id="zoom-in" viewBox="0 0 490.8 490.8"><title>zoom-in</title><path d="M364.8,299.55c46.3-75.8,36.9-176.3-28.6-241.9c-76.8-76.8-201.8-76.8-278.6,0s-76.8,201.8,0,278.5 c65.5,65.5,166,74.9,241.9,28.6L412,477.25c18,18,47.3,18,65.3,0s18-47.3,0-65.3L364.8,299.55z M295.5,295.55 c-54.4,54.4-142.8,54.4-197.1,0c-54.4-54.4-54.4-142.8,0-197.1c54.4-54.4,142.8-54.4,197.1,0 C349.8,152.75,349.8,241.15,295.5,295.55z M220,171.95h59.4v45.3H220v59.4h-45.3v-59.4h-59.3v-45.3h59.4v-59.4h45.3v59.4H220z"/></symbol><symbol id="user" viewBox="0 0 512 512"><title>user</title><path d="M437.02,330.98c-27.883-27.882-61.071-48.523-97.281-61.018C378.521,243.251,404,198.548,404,148 C404,66.393,337.607,0,256,0S108,66.393,108,148c0,50.548,25.479,95.251,64.262,121.962 c-36.21,12.495-69.398,33.136-97.281,61.018C26.629,379.333,0,443.62,0,512h40c0-119.103,96.897-216,216-216s216,96.897,216,216 h40C512,443.62,485.371,379.333,437.02,330.98z M256,256c-59.551,0-108-48.448-108-108S196.449,40,256,40 c59.551,0,108,48.448,108,108S315.551,256,256,256z"/></symbol><symbol id="left-chevron" viewBox="0 0 256 256"><title>left-chevron</title><polygon points="207.093,30.187 176.907,0 48.907,128 176.907,256 207.093,225.813 109.28,128 "/></symbol><symbol id="right-chevron" viewBox="0 0 256 256"><title>right-chevron</title><polygon points="79.093,0 48.907,30.187 146.72,128 48.907,225.813 79.093,256 207.093,128 "/></symbol><symbol id="magnifying-glass" viewBox="0 0 118.783 118.783"><title>magnifying-glass</title><path d="M115.97,101.597L88.661,74.286c4.64-7.387,7.333-16.118,7.333-25.488c0-26.509-21.49-47.996-47.998-47.996 S0,22.289,0,48.798c0,26.51,21.487,47.995,47.996,47.995c10.197,0,19.642-3.188,27.414-8.605l26.984,26.986 c1.875,1.873,4.333,2.806,6.788,2.806c2.458,0,4.913-0.933,6.791-2.806C119.72,111.423,119.72,105.347,115.97,101.597z M47.996,81.243c-17.917,0-32.443-14.525-32.443-32.443s14.526-32.444,32.443-32.444c17.918,0,32.443,14.526,32.443,32.444 S65.914,81.243,47.996,81.243z"/></symbol><symbol id="love" viewBox="0 0 64 64"><title>love</title><path d="M45.5,4A18.53,18.53,0,0,0,32,9.86,18.5,18.5,0,0,0,0,22.5C0,40.92,29.71,59,31,59.71a2,2,0,0,0,2.06,0C34.29,59,64,40.92,64,22.5A18.52,18.52,0,0,0,45.5,4ZM32,55.64C26.83,52.34,4,36.92,4,22.5a14.5,14.5,0,0,1,26.36-8.33,2,2,0,0,0,3.27,0A14.5,14.5,0,0,1,60,22.5C60,36.91,37.17,52.33,32,55.64Z"/></symbol><symbol id="pause" viewBox="-45 0 327 327"><title>pause</title><path d="m158 0h71c4.417969 0 8 3.582031 8 8v311c0 4.417969-3.582031 8-8 8h-71c-4.417969 0-8-3.582031-8-8v-311c0-4.417969 3.582031-8 8-8zm0 0"/><path d="m8 0h71c4.417969 0 8 3.582031 8 8v311c0 4.417969-3.582031 8-8 8h-71c-4.417969 0-8-3.582031-8-8v-311c0-4.417969 3.582031-8 8-8zm0 0"/></symbol><symbol id="shopping-basket" viewBox="0 0 475.293 475.293"><title>shopping-basket</title><path d="m475.293 178.235h-80.708l-84.791-141.32c-4.206-7.02-13.33-9.312-20.379-5.091-7.035 4.221-9.312 13.344-5.091 20.379l75.619 126.032h-244.592l75.619-126.033c4.221-7.035 1.944-16.158-5.091-20.379-7.064-4.221-16.158-1.929-20.379 5.091l-84.791 141.32h-80.709v29.706h32.237l37.734 201.283c3.945 21.076 22.366 36.364 43.805 36.364h247.742c21.438 0 39.859-15.288 43.79-36.349l37.747-201.298h32.239c-.001 0-.001-29.705-.001-29.705zm-99.184 225.535c-1.305 7.02-7.441 12.112-14.592 12.112h-247.741c-7.151 0-13.286-5.091-14.606-12.126l-36.719-195.816h350.392s-36.734 195.83-36.734 195.83z"/></symbol><symbol id="multimedia-player" viewBox="0 0 512 512"><title>multimedia-player</title><g> <g> <path d="M496.327,49.208H15.673C7.018,49.208,0,56.225,0,64.881v382.237c0,8.656,7.018,15.673,15.673,15.673h480.653 c8.656,0,15.673-7.018,15.673-15.673V64.881C512,56.225,504.982,49.208,496.327,49.208z M87.858,431.446H31.347V335.38h56.511 V431.446z M87.858,304.033H31.347v-96.066h56.511V304.033z M87.858,176.621H31.347V80.555h56.511V176.621z M392.794,431.445 H119.205V80.555h273.589V431.445z M480.653,431.446h-56.512V335.38h56.512V431.446z M480.653,304.033h-56.512v-96.066h56.512 V304.033z M480.653,176.621h-56.512V80.555h56.512V176.621z"/> </g> </g><g> <g> <path d="M325.349,242.446l-100.602-58.417c-10.444-6.064-23.544,1.499-23.544,13.554v116.833 c0,12.119,13.164,19.582,23.544,13.554l100.602-58.417C335.742,263.519,335.734,248.477,325.349,242.446z M232.55,287.192v-62.383 l53.716,31.191L232.55,287.192z"/> </g> </g></symbol><symbol id="minus" viewBox="0 -192 469.33333 469"><title>minus</title><path d="m437.332031.167969h-405.332031c-17.664062 0-32 14.335937-32 32v21.332031c0 17.664062 14.335938 32 32 32h405.332031c17.664063 0 32-14.335938 32-32v-21.332031c0-17.664063-14.335937-32-32-32zm0 0"/></symbol><symbol id="plus" viewBox="0 0 469.33333 469.33333"><title>plus</title><path d="m437.332031 192h-160v-160c0-17.664062-14.335937-32-32-32h-21.332031c-17.664062 0-32 14.335938-32 32v160h-160c-17.664062 0-32 14.335938-32 32v21.332031c0 17.664063 14.335938 32 32 32h160v160c0 17.664063 14.335938 32 32 32h21.332031c17.664063 0 32-14.335937 32-32v-160h160c17.664063 0 32-14.335937 32-32v-21.332031c0-17.664062-14.335937-32-32-32zm0 0"/></symbol><symbol id="facebook" viewBox="0 0 100 100"><title>facebook</title><path id="Icon_11_" d="m40.4 55.2c-.3 0-6.9 0-9.9 0-1.6 0-2.1-.6-2.1-2.1 0-4 0-8.1 0-12.1 0-1.6.6-2.1 2.1-2.1h9.9c0-.3 0-6.1 0-8.8 0-4 .7-7.8 2.7-11.3 2.1-3.6 5.1-6 8.9-7.4 2.5-.9 5-1.3 7.7-1.3h9.8c1.4 0 2 .6 2 2v11.4c0 1.4-.6 2-2 2-2.7 0-5.4 0-8.1.1-2.7 0-4.1 1.3-4.1 4.1-.1 3 0 5.9 0 9h11.6c1.6 0 2.2.6 2.2 2.2v12.1c0 1.6-.5 2.1-2.2 2.1-3.6 0-11.3 0-11.6 0v32.6c0 1.7-.5 2.3-2.3 2.3-4.2 0-8.3 0-12.5 0-1.5 0-2.1-.6-2.1-2.1 0-10.5 0-32.4 0-32.7z"/></symbol><symbol id="twitter" viewBox="0 0 100 100"><title>twitter</title><path id="_x30_4.Twitter" d="m89.9 25.2c-3 1.3-6.1 2.2-9.4 2.6 3.4-2 6-5.2 7.2-9.1-3.2 1.9-6.7 3.2-10.4 4-3-3.2-7.3-5.2-12-5.2-9.1 0-16.4 7.4-16.4 16.4 0 1.3.1 2.5.4 3.7-13.6-.6-25.6-7.2-33.7-17.1-5.8 10.4.7 19 5 21.9-2.6 0-5.2-.8-7.4-2 0 8.1 5.7 14.8 13.1 16.3-1.6.5-5.2.8-7.4.3 2.1 6.5 8.2 11.3 15.3 11.4-5.6 4.4-13.8 7.9-24.3 6.8 7.3 4.7 15.9 7.4 25.2 7.4 30.2 0 46.6-25 46.6-46.6 0-.7 0-1.4-.1-2.1 3.4-2.5 6.2-5.4 8.3-8.7z"/></symbol><symbol id="linkedin" viewBox="0 0 100 100"><title>linkedin</title><path d="m90 90v-29.3c0-14.4-3.1-25.4-19.9-25.4-8.1 0-13.5 4.4-15.7 8.6h-.2v-7.3h-15.9v53.4h16.6v-26.5c0-7 1.3-13.7 9.9-13.7 8.5 0 8.6 7.9 8.6 14.1v26h16.6z"/><path d="m11.3 36.6h16.6v53.4h-16.6z"/><path d="m19.6 10c-5.3 0-9.6 4.3-9.6 9.6s4.3 9.7 9.6 9.7 9.6-4.4 9.6-9.7-4.3-9.6-9.6-9.6z"/></symbol><symbol id="pinterest" viewBox="0 0 100 100"><title>pinterest</title><path d="m90 51.2c.6-22.9-17.8-41.5-40.6-41.2-21.9.3-39.6 18.4-39.4 40.3.1 15.7 9.3 29.2 22.5 35.7.8.4 1.7-.2 1.6-1.1-.1-2.6 0-5.3.5-7.5s2.5-10.6 3.8-16.1c.6-2.7.7-5.5.2-8.2-.2-.9-.3-1.9-.3-3.1 0-5.9 3.4-10.3 7.7-10.3 3.6 0 5.4 2.7 5.4 6 0 3.6-2.3 9.1-3.5 14.2-1 4.2 2.1 7.7 6.3 7.7 7.6 0 13.4-8 13.4-19.5 0-10.2-7.3-17.3-17.8-17.3-12.1 0-19.2 9.1-19.2 18.5 0 3.7 1.4 7.6 3.2 9.7.3.4.4.8.3 1.2-.3 1.3-1 4.2-1.2 4.8-.2.8-.6.9-1.4.6-5.3-2.6-8.7-10.4-8.7-16.6 0-13.4 9.7-25.7 28.1-25.7 14.7 0 26.2 10.5 26.2 24.6 0 14.7-9.2 26.4-22.1 26.4-3.4 0-6.6-1.4-8.5-3.3-.6-.6-1.6-.3-1.8.5-.7 2.5-1.7 6.7-2.1 8-.6 2.4-1.9 5.2-3.3 7.7-.4.6 0 1.5.7 1.6 3.3.8 6.7 1.3 10.2 1.2 21.2-.2 39.2-17.8 39.8-38.8z"/></symbol><symbol id="youtube" viewBox="0 0 100 100"><title>youtube</title><path id="Icon_23_" d="m74.9 21.4h-49.8c-8.4 0-15.1 6.8-15.1 15.1v26.9c0 8.4 6.8 15.1 15.1 15.1h49.8c8.4 0 15.1-6.8 15.1-15.1v-26.9c0-8.3-6.8-15.1-15.1-15.1zm-35.4 40.9v-24.6l21 12.3z"/></symbol><symbol id="instagram" viewBox="0 0 511 511.9"><title>instagram</title><path d="m510.949219 150.5c-1.199219-27.199219-5.597657-45.898438-11.898438-62.101562-6.5-17.199219-16.5-32.597657-29.601562-45.398438-12.800781-13-28.300781-23.101562-45.300781-29.5-16.296876-6.300781-34.898438-10.699219-62.097657-11.898438-27.402343-1.300781-36.101562-1.601562-105.601562-1.601562s-78.199219.300781-105.5 1.5c-27.199219 1.199219-45.898438 5.601562-62.097657 11.898438-17.203124 6.5-32.601562 16.5-45.402343 29.601562-13 12.800781-23.097657 28.300781-29.5 45.300781-6.300781 16.300781-10.699219 34.898438-11.898438 62.097657-1.300781 27.402343-1.601562 36.101562-1.601562 105.601562s.300781 78.199219 1.5 105.5c1.199219 27.199219 5.601562 45.898438 11.902343 62.101562 6.5 17.199219 16.597657 32.597657 29.597657 45.398438 12.800781 13 28.300781 23.101562 45.300781 29.5 16.300781 6.300781 34.898438 10.699219 62.101562 11.898438 27.296876 1.203124 36 1.5 105.5 1.5s78.199219-.296876 105.5-1.5c27.199219-1.199219 45.898438-5.597657 62.097657-11.898438 34.402343-13.300781 61.601562-40.5 74.902343-74.898438 6.296876-16.300781 10.699219-34.902343 11.898438-62.101562 1.199219-27.300781 1.5-36 1.5-105.5s-.101562-78.199219-1.300781-105.5zm-46.097657 209c-1.101562 25-5.300781 38.5-8.800781 47.5-8.601562 22.300781-26.300781 40-48.601562 48.601562-9 3.5-22.597657 7.699219-47.5 8.796876-27 1.203124-35.097657 1.5-103.398438 1.5s-76.5-.296876-103.402343-1.5c-25-1.097657-38.5-5.296876-47.5-8.796876-11.097657-4.101562-21.199219-10.601562-29.398438-19.101562-8.5-8.300781-15-18.300781-19.101562-29.398438-3.5-9-7.699219-22.601562-8.796876-47.5-1.203124-27-1.5-35.101562-1.5-103.402343s.296876-76.5 1.5-103.398438c1.097657-25 5.296876-38.5 8.796876-47.5 4.101562-11.101562 10.601562-21.199219 19.203124-29.402343 8.296876-8.5 18.296876-15 29.398438-19.097657 9-3.5 22.601562-7.699219 47.5-8.800781 27-1.199219 35.101562-1.5 103.398438-1.5 68.402343 0 76.5.300781 103.402343 1.5 25 1.101562 38.5 5.300781 47.5 8.800781 11.097657 4.097657 21.199219 10.597657 29.398438 19.097657 8.5 8.300781 15 18.300781 19.101562 29.402343 3.5 9 7.699219 22.597657 8.800781 47.5 1.199219 27 1.5 35.097657 1.5 103.398438s-.300781 76.300781-1.5 103.300781zm0 0"/><path d="m256.449219 124.5c-72.597657 0-131.5 58.898438-131.5 131.5s58.902343 131.5 131.5 131.5c72.601562 0 131.5-58.898438 131.5-131.5s-58.898438-131.5-131.5-131.5zm0 216.800781c-47.097657 0-85.300781-38.199219-85.300781-85.300781s38.203124-85.300781 85.300781-85.300781c47.101562 0 85.300781 38.199219 85.300781 85.300781s-38.199219 85.300781-85.300781 85.300781zm0 0"/><path d="m423.851562 119.300781c0 16.953125-13.746093 30.699219-30.703124 30.699219-16.953126 0-30.699219-13.746094-30.699219-30.699219 0-16.957031 13.746093-30.699219 30.699219-30.699219 16.957031 0 30.703124 13.742188 30.703124 30.699219zm0 0"/></symbol><symbol id="envelope" viewBox="0 0 512 512"><title>envelope</title><path d="M469.333,64H42.667C19.135,64,0,83.135,0,106.667v298.667C0,428.865,19.135,448,42.667,448h426.667 C492.865,448,512,428.865,512,405.333V106.667C512,83.135,492.865,64,469.333,64z M42.667,85.333h426.667 c1.572,0,2.957,0.573,4.432,0.897c-36.939,33.807-159.423,145.859-202.286,184.478c-3.354,3.021-8.76,6.625-15.479,6.625 s-12.125-3.604-15.49-6.635C197.652,232.085,75.161,120.027,38.228,86.232C39.706,85.908,41.094,85.333,42.667,85.333z M21.333,405.333V106.667c0-2.09,0.63-3.986,1.194-5.896c28.272,25.876,113.736,104.06,169.152,154.453 C136.443,302.671,50.957,383.719,22.46,410.893C21.957,409.079,21.333,407.305,21.333,405.333z M469.333,426.667H42.667 c-1.704,0-3.219-0.594-4.81-0.974c29.447-28.072,115.477-109.586,169.742-156.009c7.074,6.417,13.536,12.268,18.63,16.858 c8.792,7.938,19.083,12.125,29.771,12.125s20.979-4.188,29.76-12.115c5.096-4.592,11.563-10.448,18.641-16.868 c54.268,46.418,140.286,127.926,169.742,156.009C472.552,426.073,471.039,426.667,469.333,426.667z M490.667,405.333 c0,1.971-0.624,3.746-1.126,5.56c-28.508-27.188-113.984-108.227-169.219-155.668c55.418-50.393,140.869-128.57,169.151-154.456 c0.564,1.91,1.194,3.807,1.194,5.897V405.333z"/></symbol></svg>